# Made in Blockbench 5.1.6
mtllib Cassette.mtl

o mesh
v 0.4375 0.125 0.3125
v 0.4375 0.125 -0.3125
v 0.4375 0 0.3125
v 0.4375 0 -0.3125
v -0.4375 0.125 0.3125
v -0.4375 0.125 -0.3125
v -0.4375 0 0.3125
v -0.4375 0 -0.3125
vt 0.78125 0.8125
vt 0.46875 0.8125
vt 0.46875 0.75
vt 0.78125 0.75
vt 0.78125 0.65625
vt 0.78125 0.71875
vt 0.46875 0.71875
vt 0.46875 0.65625
vt 0 0.6875
vt 0.4375 0.6875
vt 0.4375 1
vt 0 1
vt 0.4375 0.34375
vt 0.4375 0.65625
vt 0 0.65625
vt 0 0.34375
vt 0.90625 0.9375
vt 0.90625 1
vt 0.46875 1
vt 0.46875 0.9375
vt 0.90625 0.90625
vt 0.46875 0.90625
vt 0.46875 0.84375
vt 0.90625 0.84375
vn 1 0 0
vn -1 0 0
vn 0 1 0
vn 0 -1 0
vn 0 0 1
vn 0 0 -1
usemtl m_335e9447-768c-36f2-ef42-df688d018064
f 2/1/1 1/2/1 3/3/1 4/4/1
f 7/5/2 5/6/2 6/7/2 8/8/2
f 5/9/3 1/10/3 2/11/3 6/12/3
f 4/13/4 3/14/4 7/15/4 8/16/4
f 3/17/5 1/18/5 5/19/5 7/20/5
f 6/21/6 2/22/6 4/23/6 8/24/6