# Made in Blockbench 5.1.6
mtllib television.mtl

o mesh
v 0.5 0.6871893055484513 0.40542952275396327
v 0.5 0.7957194165902828 -0.21007532287866668
v 0.5 0.07168445991582127 0.29689941171213186
v 0.5 0.18021457095765273 -0.3186054339204981
v -0.5 0.6871893055484513 0.40542952275396327
v -0.5 0.7957194165902828 -0.21007532287866668
v -0.5 0.07168445991582127 0.29689941171213186
v -0.5 0.18021457095765273 -0.3186054339204981
vt 0.2109375 0.65625
vt 0.1328125 0.65625
vt 0.1328125 0.578125
vt 0.2109375 0.578125
vt 0.078125 0.5703125
vt 0.078125 0.6484375
vt 0 0.6484375
vt 0 0.5703125
vt 0.1328125 0.75
vt 0.2578125 0.75
vt 0.2578125 0.828125
vt 0.1328125 0.828125
vt 0.2578125 0.6640625
vt 0.2578125 0.7421875
vt 0.1328125 0.7421875
vt 0.1328125 0.6640625
vt 0.125 0.65625
vt 0.125 0.734375
vt 0 0.734375
vt 0 0.65625
vt 0.390625 1
vt 0.265625 1
vt 0.265625 0.921875
vt 0.390625 0.921875
vn 1 0 0
vn -1 0 0
vn 0 0.984807753012208 0.17364817766693033
vn 0 -0.984807753012208 -0.17364817766693033
vn 0 -0.17364817766693033 0.984807753012208
vn 0 0.17364817766693033 -0.984807753012208
usemtl m_c3432c0e-1bec-79f4-b66a-3239648a82a9
f 2/1/1 1/2/1 3/3/1 4/4/1
f 7/5/2 5/6/2 6/7/2 8/8/2
f 5/9/3 1/10/3 2/11/3 6/12/3
f 4/13/4 3/14/4 7/15/4 8/16/4
f 3/17/5 1/18/5 5/19/5 7/20/5
f 6/21/6 2/22/6 4/23/6 8/24/6
o screen
v 0.5 1.0744803881558842 -0.35131473215172315
v 0.5 1.0744803881558842 -0.35131473215172315
v 0.5 0.08967263514367615 -0.5249629098186535
v 0.5 0.08967263514367615 -0.5249629098186535
v -0.5 1.0744803881558842 -0.35131473215172315
v -0.5 1.0744803881558842 -0.35131473215172315
v -0.5 0.08967263514367615 -0.5249629098186535
v -0.5 0.08967263514367615 -0.5249629098186535
vt 0 1
vt 0 1
vt 0 1
vt 0 1
vt 0 1
vt 0 1
vt 0 1
vt 0 1
vt 0.125 1
vt 0.125 1
vt 0 1
vt 0 1
vt 0.125 1
vt 0 1
vt 0.125 1
vt 0 1
vt 0.125 0.875
vt 0.125 1
vt 0 1
vt 0 0.875
vt 0.125 0.8671875
vt 0 0.8671875
vt 0 0.7421875
vt 0.125 0.7421875
vn 0 0 0
vn 0 0 0
vn 0 0 0
vn 0 0 0
vn 0 -0.17364817766693033 0.984807753012208
vn 0 0.17364817766693033 -0.984807753012208
usemtl m_c3432c0e-1bec-79f4-b66a-3239648a82a9
f 9/25/7 11/26/7 10/27/7 12/28/7
f 13/29/8 14/30/8 15/31/8 16/32/8
f 9/33/9 10/34/9 13/35/9 14/36/9
f 11/37/10 15/38/10 12/39/10 16/40/10
f 11/41/11 9/42/11 13/43/11 15/44/11
f 14/45/12 10/46/12 12/47/12 16/48/12
o mesh
v 0.5 0.6814731888945579 0.36854051830539747
v 0.5 0.9939731888945578 -0.1727253590598767
v 0.5 0.2484604870023385 0.11854051830539755
v 0.5 0.5609604870023385 -0.4227253590598766
v -0.5 0.6814731888945579 0.36854051830539747
v -0.5 0.9939731888945578 -0.1727253590598767
v -0.5 0.2484604870023385 0.11854051830539755
v -0.5 0.5609604870023385 -0.4227253590598766
vt 0.4765625 1
vt 0.3984375 1
vt 0.3984375 0.9375
vt 0.4765625 0.9375
vt 0.4765625 0.8671875
vt 0.4765625 0.9296875
vt 0.3984375 0.9296875
vt 0.3984375 0.8671875
vt 0.1328125 0.921875
vt 0.2578125 0.921875
vt 0.2578125 1
vt 0.1328125 1
vt 0.2578125 0.8359375
vt 0.2578125 0.9140625
vt 0.1328125 0.9140625
vt 0.1328125 0.8359375
vt 0.390625 0.6796875
vt 0.390625 0.7421875
vt 0.265625 0.7421875
vt 0.265625 0.6796875
vt 0.390625 0.671875
vt 0.265625 0.671875
vt 0.265625 0.609375
vt 0.390625 0.609375
vn 1 0 0
vn -1 0 0
vn 0 0.8660254037844387 0.4999999999999999
vn 0 -0.8660254037844387 -0.4999999999999999
vn 0 -0.4999999999999999 0.8660254037844387
vn 0 0.4999999999999999 -0.8660254037844387
usemtl m_c3432c0e-1bec-79f4-b66a-3239648a82a9
f 18/49/13 17/50/13 19/51/13 20/52/13
f 23/53/14 21/54/14 22/55/14 24/56/14
f 21/57/15 17/58/15 18/59/15 22/60/15
f 20/61/16 19/62/16 23/63/16 24/64/16
f 19/65/17 17/66/17 21/67/17 23/68/17
f 22/69/18 18/70/18 20/71/18 24/72/18
o mesh
v 0.5 0.25474757718368496 0.25823494447908424
v 0.5 0.25474757718368496 -0.36676505552091565
v 0.5 0.004747577183685001 0.25823494447908424
v 0.5 0.004747577183685001 -0.36676505552091565
v -0.5 0.25474757718368496 0.25823494447908424
v -0.5 0.25474757718368496 -0.36676505552091565
v -0.5 0.004747577183685001 0.25823494447908424
v -0.5 0.004747577183685001 -0.36676505552091565
vt 0.28125 0.5625
vt 0.203125 0.5625
vt 0.203125 0.53125
vt 0.28125 0.53125
vt 0.3671875 0.53125
vt 0.3671875 0.5625
vt 0.2890625 0.5625
vt 0.2890625 0.53125
vt 0.265625 0.8359375
vt 0.390625 0.8359375
vt 0.390625 0.9140625
vt 0.265625 0.9140625
vt 0.390625 0.75
vt 0.390625 0.828125
vt 0.265625 0.828125
vt 0.265625 0.75
vt 0.5234375 0.6328125
vt 0.5234375 0.6640625
vt 0.3984375 0.6640625
vt 0.3984375 0.6328125
vt 0.4921875 0.6015625
vt 0.3671875 0.6015625
vt 0.3671875 0.5703125
vt 0.4921875 0.5703125
vn 1 0 0
vn -1 0 0
vn 0 1 0
vn 0 -1 0
vn 0 0 1
vn 0 0 -1
usemtl m_c3432c0e-1bec-79f4-b66a-3239648a82a9
f 26/73/19 25/74/19 27/75/19 28/76/19
f 31/77/20 29/78/20 30/79/20 32/80/20
f 29/81/21 25/82/21 26/83/21 30/84/21
f 28/85/22 27/86/22 31/87/22 32/88/22
f 27/89/23 25/90/23 29/91/23 31/92/23
f 30/93/24 26/94/24 28/95/24 32/96/24
o mesh
v 0.5625 1.1034718394065977 -0.155810267357751
v 0.5625 1.1468838838233304 -0.402012205610803
v 0.5625 0.9803708702800717 -0.17751628956611729
v 0.5625 1.0237829146968043 -0.4237182278191693
v -0.5625 1.1034718394065977 -0.155810267357751
v -0.5625 1.1468838838233304 -0.402012205610803
v -0.5625 0.9803708702800717 -0.17751628956611729
v -0.5625 1.0237829146968043 -0.4237182278191693
vt 0.46875 0.5390625
vt 0.4375 0.5390625
vt 0.4375 0.5234375
vt 0.46875 0.5234375
vt 0.234375 0.5078125
vt 0.234375 0.5234375
vt 0.203125 0.5234375
vt 0.203125 0.5078125
vt 0.3984375 0.7109375
vt 0.5390625 0.7109375
vt 0.5390625 0.7421875
vt 0.3984375 0.7421875
vt 0.5390625 0.671875
vt 0.5390625 0.703125
vt 0.3984375 0.703125
vt 0.3984375 0.671875
vt 0.5390625 0.609375
vt 0.5390625 0.625
vt 0.3984375 0.625
vt 0.3984375 0.609375
vt 0.515625 0.5625
vt 0.375 0.5625
vt 0.375 0.546875
vt 0.515625 0.546875
vn 1 0 0
vn -1 0 0
vn 0 0.984807753012208 0.17364817766693033
vn 0 -0.984807753012208 -0.17364817766693033
vn 0 -0.17364817766693033 0.984807753012208
vn 0 0.17364817766693033 -0.984807753012208
usemtl m_c3432c0e-1bec-79f4-b66a-3239648a82a9
f 34/97/25 33/98/25 35/99/25 36/100/25
f 39/101/26 37/102/26 38/103/26 40/104/26
f 37/105/27 33/106/27 34/107/27 38/108/27
f 36/109/28 35/110/28 39/111/28 40/112/28
f 35/113/29 33/114/29 37/115/29 39/116/29
f 38/117/30 34/118/30 36/119/30 40/120/30
o mesh
v 0.5625 0.9803708702800717 -0.17751628956611729
v 0.5625 1.0237829146968043 -0.4237182278191693
v 0.5625 0.24176505552091568 -0.30775242281631504
v 0.5625 0.2851770999376483 -0.553954361069367
v 0.4375 0.9803708702800717 -0.17751628956611729
v 0.4375 1.0237829146968043 -0.4237182278191693
v 0.4375 0.24176505552091568 -0.30775242281631504
v 0.4375 0.2851770999376483 -0.553954361069367
vt 0.1171875 0.6484375
vt 0.0859375 0.6484375
vt 0.0859375 0.5546875
vt 0.1171875 0.5546875
vt 0.15625 0.4765625
vt 0.15625 0.5703125
vt 0.125 0.5703125
vt 0.125 0.4765625
vt 0.2421875 0.4921875
vt 0.2578125 0.4921875
vt 0.2578125 0.5234375
vt 0.2421875 0.5234375
vt 0.28125 0.4921875
vt 0.28125 0.5234375
vt 0.265625 0.5234375
vt 0.265625 0.4921875
vt 0.0546875 0.46875
vt 0.0546875 0.5625
vt 0.0390625 0.5625
vt 0.0390625 0.46875
vt 0.078125 0.5625
vt 0.0625 0.5625
vt 0.0625 0.46875
vt 0.078125 0.46875
vn 1 0 0
vn -1 0 0
vn 0 0.984807753012208 0.17364817766693033
vn 0 -0.984807753012208 -0.17364817766693033
vn 0 -0.17364817766693033 0.984807753012208
vn 0 0.17364817766693033 -0.984807753012208
usemtl m_c3432c0e-1bec-79f4-b66a-3239648a82a9
f 42/121/31 41/122/31 43/123/31 44/124/31
f 47/125/32 45/126/32 46/127/32 48/128/32
f 45/129/33 41/130/33 42/131/33 46/132/33
f 44/133/34 43/134/34 47/135/34 48/136/34
f 43/137/35 41/138/35 45/139/35 47/140/35
f 46/141/36 42/142/36 44/143/36 48/144/36
o mesh
v 0.5625 0.24176505552091565 -0.307752422816315
v 0.5625 0.2851770999376483 -0.553954361069367
v 0.5625 -0.004436882732136313 -0.3511644672330476
v 0.5625 0.03897516168459628 -0.5973664054860996
v -0.5625 0.24176505552091565 -0.307752422816315
v -0.5625 0.2851770999376483 -0.553954361069367
v -0.5625 -0.004436882732136313 -0.3511644672330476
v -0.5625 0.03897516168459628 -0.5973664054860996
vt 0.25 0.65625
vt 0.21875 0.65625
vt 0.21875 0.625
vt 0.25 0.625
vt 0.4296875 0.5078125
vt 0.4296875 0.5390625
vt 0.3984375 0.5390625
vt 0.3984375 0.5078125
vt 0.3984375 0.828125
vt 0.5390625 0.828125
vt 0.5390625 0.859375
vt 0.3984375 0.859375
vt 0.5390625 0.7890625
vt 0.5390625 0.8203125
vt 0.3984375 0.8203125
vt 0.3984375 0.7890625
vt 0.359375 0.5703125
vt 0.359375 0.6015625
vt 0.21875 0.6015625
vt 0.21875 0.5703125
vt 0.5390625 0.78125
vt 0.3984375 0.78125
vt 0.3984375 0.75
vt 0.5390625 0.75
vn 1 0 0
vn -1 0 0
vn 0 0.984807753012208 0.17364817766693033
vn 0 -0.984807753012208 -0.17364817766693033
vn 0 -0.17364817766693033 0.984807753012208
vn 0 0.17364817766693033 -0.984807753012208
usemtl m_c3432c0e-1bec-79f4-b66a-3239648a82a9
f 50/145/37 49/146/37 51/147/37 52/148/37
f 55/149/38 53/150/38 54/151/38 56/152/38
f 53/153/39 49/154/39 50/155/39 54/156/39
f 52/157/40 51/158/40 55/159/40 56/160/40
f 51/161/41 49/162/41 53/163/41 55/164/41
f 54/165/42 50/166/42 52/167/42 56/168/42
o mesh
v -0.4375 0.9803708702800717 -0.17751628956611729
v -0.4375 1.0237829146968043 -0.4237182278191693
v -0.4375 0.24176505552091568 -0.30775242281631504
v -0.4375 0.2851770999376483 -0.553954361069367
v -0.5625 0.9803708702800717 -0.17751628956611729
v -0.5625 1.0237829146968043 -0.4237182278191693
v -0.5625 0.24176505552091568 -0.30775242281631504
v -0.5625 0.2851770999376483 -0.553954361069367
vt 0.1953125 0.5703125
vt 0.1640625 0.5703125
vt 0.1640625 0.4765625
vt 0.1953125 0.4765625
vt 0.03125 0.46875
vt 0.03125 0.5625
vt 0 0.5625
vt 0 0.46875
vt 0.2890625 0.4921875
vt 0.3046875 0.4921875
vt 0.3046875 0.5234375
vt 0.2890625 0.5234375
vt 0.328125 0.4921875
vt 0.328125 0.5234375
vt 0.3125 0.5234375
vt 0.3125 0.4921875
vt 0.1015625 0.453125
vt 0.1015625 0.546875
vt 0.0859375 0.546875
vt 0.0859375 0.453125
vt 0.390625 0.5390625
vt 0.375 0.5390625
vt 0.375 0.4453125
vt 0.390625 0.4453125
vn 1 0 0
vn -1 0 0
vn 0 0.984807753012208 0.17364817766693033
vn 0 -0.984807753012208 -0.17364817766693033
vn 0 -0.17364817766693033 0.984807753012208
vn 0 0.17364817766693033 -0.984807753012208
usemtl m_c3432c0e-1bec-79f4-b66a-3239648a82a9
f 58/169/43 57/170/43 59/171/43 60/172/43
f 63/173/44 61/174/44 62/175/44 64/176/44
f 61/177/45 57/178/45 58/179/45 62/180/45
f 60/181/46 59/182/46 63/183/46 64/184/46
f 59/185/47 57/186/47 61/187/47 63/188/47
f 62/189/48 58/190/48 60/191/48 64/192/48